<svg width="44" height="44" viewBox="0 0 44 44" fill="none" xmlns="http://www.w3.org/2000/svg">
  <defs>
    <linearGradient id="jbGrad" x1="0%" y1="0%" x2="100%" y2="100%">
      <stop offset="0%" stopColor="#f0f4ff" />
      <stop offset="50%" stopColor="#4fc3f7" />
      <stop offset="100%" stopColor="#0ea5e9" />
    </linearGradient>
    <linearGradient id="jbGlow" x1="0%" y1="0%" x2="100%" y2="100%">
      <stop offset="0%" stopColor="#4fc3f7" stopOpacity="0.4" />
      <stop offset="100%" stopColor="#0ea5e9" stopOpacity="0" />
    </linearGradient>
  </defs>
  
  <path d="M 2 12 L 12 2 L 42 2 L 42 32 L 32 42 L 2 42 Z" fill="url(#jbGlow)" stroke="url(#jbGrad)" strokeWidth="1.5" strokeOpacity="0.5" />
  
  <path d="M 14 14 L 22 14 L 22 28 Q 22 32 18 32 L 14 32" fill="none" stroke="url(#jbGrad)" strokeWidth="4" strokeLinecap="square" />
  <rect x="20" y="11" width="10" height="4" fill="url(#jbGrad)" />
  
  <path d="M 24 16 L 31 16 Q 35 16 35 20 Q 35 22 31 22 L 24 22 Z" fill="none" stroke="url(#jbGrad)" strokeWidth="3" />
  <path d="M 24 22 L 32 22 Q 37 22 37 26.5 Q 37 31 32 31 L 22 31" fill="none" stroke="url(#jbGrad)" strokeWidth="3" />
  
  <circle cx="22" cy="31" r="2.5" fill="#fff" />
</svg>